<?xml version="1.0" encoding="UTF-8"?>
<svg id="Layer_2" data-name="Layer 2" xmlns="http://www.w3.org/2000/svg" viewBox="0 0 170.09 21">
  <defs>
    <style>
      .cls-1 {
        fill: #090b0e;
        stroke-width: 0px;
      }
    </style>
  </defs>
  <g id="Layer_1-2" data-name="Layer 1">
    <g>
      <path class="cls-1" d="M10.2,0C4.57,0,0,4.46,0,9.95s4.57,9.95,10.2,9.95,10.2-4.46,10.2-9.95S15.84,0,10.2,0ZM11.13,16.51h0s-.01,0-.01,0c0,0-.04,0-.05-.02-.02-.02-.03-.03-.03-.05v-2.77s.02-.06.06-.07c1.39-.32,2.5-1.4,2.83-2.76,0-.03.04-.06.07-.06h2.83s.04.01.06.03c.02.02.02.04.02.06-.4,2.93-2.78,5.25-5.78,5.64ZM16.84,9.19h-2.84s-.06-.02-.07-.06c-.41-1.69-1.93-2.87-3.7-2.87-2.1,0-3.81,1.67-3.81,3.72,0,1.73,1.21,3.22,2.94,3.61.03,0,.06.04.06.07v2.77s-.01.04-.03.05c-.02.01-.03.02-.05.02h-.01c-3.33-.44-5.85-3.24-5.85-6.52,0-3.63,3.02-6.58,6.74-6.58,3.35,0,6.22,2.44,6.68,5.68,0,.01,0,.02,0,.03,0,.04-.03.07-.07.07Z"/>
      <path class="cls-1" d="M81.07,8.54c-.67-.41-1.42-.61-2.24-.61-.67,0-1.28.12-1.85.36-.56.24-1.03.56-1.41.97-.38.41-.67.88-.88,1.42-.21.54-.31,1.11-.31,1.7h0c0,.81.2,1.55.6,2.21.41.67.96,1.2,1.66,1.58.7.38,1.48.57,2.34.57.74,0,1.43-.15,2.08-.46.65-.31,1.17-.73,1.56-1.27l-1.53-1.18c-.24.31-.55.54-.93.7-.38.16-.78.23-1.19.23-.63,0-1.16-.16-1.58-.47-.43-.31-.7-.74-.83-1.27h6.58c.04-.21.06-.45.06-.69,0-.79-.19-1.51-.55-2.18-.37-.67-.89-1.2-1.56-1.61ZM76.62,11.42c.17-.46.45-.82.84-1.09.39-.27.84-.41,1.36-.41s1.01.14,1.41.43c.4.29.63.65.7,1.07h-4.3Z"/>
      <polygon class="cls-1" points="84.57 16.51 84.57 16.51 84.56 16.51 84.57 16.51"/>
      <path class="cls-1" d="M86.8,8.72v-.63h-2.23v8.42h2.23v-4.25c0-.31.02-.57.07-.79.05-.22.14-.42.27-.62.14-.19.32-.35.57-.46.24-.11.56-.2.96-.26.4-.07.88-.1,1.44-.1v-2.09c-.85,0-1.5.06-1.98.17-.48.11-.92.32-1.34.62Z"/>
      <rect class="cls-1" x="49.56" y="8.09" width="2.23" height="8.42"/>
      <path class="cls-1" d="M58.45,7.94c-.94,0-1.74.26-2.4.78v-.63h-2.23v12.91h2.23v-5.03c.66.52,1.45.78,2.4.78.83,0,1.6-.2,2.3-.59.7-.4,1.26-.93,1.66-1.61.41-.67.61-1.41.61-2.21,0-1.23-.45-2.26-1.33-3.12-.89-.86-1.97-1.28-3.24-1.28ZM60.13,13.96c-.47.46-1.02.69-1.68.69s-1.19-.22-1.66-.65c-.47-.44-.71-.96-.74-1.56v-.2c.03-.6.27-1.11.74-1.56.47-.44,1.02-.66,1.66-.66s1.21.23,1.68.69c.47.46.7,1,.7,1.62s-.23,1.17-.7,1.63Z"/>
      <path class="cls-1" d="M46.68,8.8c-.33-.29-.7-.5-1.12-.65-.42-.15-.86-.22-1.35-.22-.36,0-.7.05-1.02.14-.31.09-.55.18-.7.27-.15.09-.33.22-.55.38V3.39h-2.23v13.12h2.23v-4.53c0-1.3.59-1.96,1.77-1.96s1.78.66,1.78,1.99v4.49h2.24v-4.85c0-.64-.09-1.21-.28-1.69-.18-.49-.45-.88-.78-1.17Z"/>
      <path class="cls-1" d="M68.93,7.94c-.94,0-1.74.26-2.4.78v-.63h-2.23v12.91h2.23v-5.03c.66.52,1.45.78,2.4.78.83,0,1.6-.2,2.3-.59.7-.4,1.26-.93,1.66-1.61.41-.67.61-1.41.61-2.21,0-1.23-.45-2.26-1.33-3.12-.89-.86-1.97-1.28-3.24-1.28ZM70.61,13.96c-.47.46-1.02.69-1.68.69s-1.19-.22-1.66-.65c-.47-.44-.71-.96-.74-1.56v-.2c.03-.6.27-1.11.74-1.56.47-.44,1.01-.66,1.66-.66s1.21.23,1.68.69c.47.46.7,1,.7,1.62s-.23,1.17-.7,1.63Z"/>
      <path class="cls-1" d="M91.9,4.29s-.01-.09-.02-.13c-.02-.04-.03-.07-.05-.1-.02-.03-.05-.05-.08-.07-.03-.02-.07-.04-.1-.05s-.07-.02-.12-.03c-.05,0-.09-.01-.13-.01h-.56v1.34h.23v-.55h.21l.33.55h.28l-.34-.57c.23-.05.34-.18.34-.4ZM91.63,4.42s-.04.05-.07.06c-.04.01-.07.03-.1.03-.04,0-.08,0-.13,0h-.25v-.4h.25c.11,0,.19.02.24.04.06.03.08.08.08.16,0,.05-.01.08-.03.11Z"/>
      <path class="cls-1" d="M50.69,3.94c-.41,0-.74.13-1.01.4-.27.26-.41.59-.41.97s.14.71.41.98h0c.27.27.61.4,1.01.4s.72-.13.99-.4c.27-.26.4-.59.4-.98s-.13-.72-.4-.98c-.26-.26-.59-.39-.99-.39Z"/>
      <path class="cls-1" d="M92.19,3.75c-.11-.11-.24-.19-.39-.25-.15-.06-.31-.09-.47-.09s-.32.03-.47.09c-.15.06-.28.15-.39.25-.11.1-.19.23-.26.37s-.1.3-.1.46h0c0,.22.06.42.16.6.11.18.26.32.44.43.19.11.39.16.61.16.17,0,.32-.04.47-.1.15-.07.28-.15.39-.25.11-.11.19-.23.26-.38.07-.15.1-.3.1-.46s-.03-.31-.1-.46c-.07-.15-.15-.27-.26-.38ZM92.18,5.06c-.09.14-.2.26-.35.34-.15.08-.32.13-.5.13-.14,0-.26-.03-.39-.08-.12-.05-.23-.12-.31-.2-.09-.09-.16-.19-.21-.3-.05-.12-.08-.24-.08-.36h0c0-.17.05-.33.13-.48.09-.15.2-.27.35-.35.15-.09.32-.13.5-.13s.34.05.5.13c.15.09.27.21.36.35.09.15.13.31.13.48s-.05.33-.13.48Z"/>
      <path class="cls-1" d="M30.96,5.94c.71-.43,1.5-.64,2.36-.64,1.44,0,2.62.53,3.54,1.58l1.49-1.64c-.65-.65-1.4-1.16-2.26-1.53-.86-.36-1.78-.55-2.77-.55s-1.91.18-2.78.54c-.87.36-1.62.85-2.24,1.45-.62.61-1.11,1.33-1.47,2.17-.36.84-.54,1.72-.54,2.64h0c0,1.26.32,2.4.95,3.45.63,1.04,1.49,1.86,2.57,2.45,1.08.59,2.25.89,3.53.89.92,0,1.79-.18,2.61-.52.82-.35,1.55-.83,2.2-1.44l-1.4-1.63c-.43.44-.95.79-1.57,1.05-.61.27-1.23.4-1.85.4-.84,0-1.63-.21-2.34-.62-.71-.41-1.28-.97-1.7-1.68-.42-.71-.63-1.49-.63-2.33s.2-1.61.61-2.33c.41-.72.97-1.29,1.68-1.72Z"/>
      <rect class="cls-1" x="100.31" y="7.77" width=".71" height="8.48"/>
      <path class="cls-1" d="M113.16,8.4c.16-.24.43-.36.8-.36.33,0,.63.18.91.53l-.02-.57c0-.19,0-.35.02-.48l-.07-.02s-.14-.03-.27-.04c-.13-.01-.28-.02-.44-.02-.26,0-.5.02-.71.07-.21.05-.38.1-.52.17-.14.07-.26.16-.37.27-.11.11-.19.22-.24.32s-.1.22-.14.36c-.04.14-.06.26-.08.35-.01.1-.02.21-.03.34v.17c-.02.19-.07.35-.15.49-.08.14-.23.31-.46.51h.61v2.32c0,.99-.02,1.63-.05,1.92s-.1.54-.21.73l-.09.18.86-.02c.41,0,.69,0,.85.02l-.1-.18c-.11-.22-.18-.47-.21-.78-.03-.3-.05-.93-.05-1.89v-2.3h.34c.51,0,.85.04,1.02.11v-.42c-.01-.19,0-.33,0-.43l-.08.03s-.16.03-.33.05c-.17.02-.37.03-.61.03h-.34v-.53c0-.46.05-.77.17-.95Z"/>
      <path class="cls-1" d="M117.6,9.61c-.44,0-.84.07-1.18.22-.34.15-.61.34-.81.56-.19.23-.35.49-.48.78-.12.3-.21.57-.25.83-.04.26-.06.51-.06.76,0,.9.23,1.62.68,2.17.46.55,1.11.83,1.97.83.44,0,.84-.07,1.18-.22.34-.15.61-.34.81-.56.19-.23.35-.49.48-.78.12-.29.21-.57.25-.82s.06-.51.06-.76c0-.9-.23-1.63-.68-2.18-.46-.55-1.11-.83-1.97-.83ZM117.55,15.1c-1.08,0-1.62-.8-1.62-2.4s.54-2.43,1.6-2.43,1.62.8,1.62,2.41-.54,2.42-1.6,2.42Z"/>
      <path class="cls-1" d="M124.92,9.75s-.11-.07-.23-.1c-.12-.03-.26-.05-.42-.05-.1,0-.2.02-.32.05s-.25.09-.41.18c-.16.09-.3.23-.43.44s-.23.46-.29.76l.04-1.39-1.34.26.09.18c.1.17.16.41.2.7.04.3.06.86.06,1.69v.32c0,.72-.01,1.27-.04,1.64s-.05.6-.08.69c-.03.09-.08.2-.15.33l-.09.18.86-.02c.41,0,.69,0,.85.02l-.1-.18c-.07-.13-.12-.24-.15-.33-.03-.09-.05-.32-.08-.69s-.04-.92-.04-1.64v-1.7l.02-.06s.04-.11.09-.17.1-.13.17-.19.17-.12.31-.16c.13-.04.29-.07.45-.07.43,0,.79.23,1.07.7l-.02-.7c0-.27,0-.49.02-.66l-.06-.04Z"/>
      <path class="cls-1" d="M132.57,12.18c-.19-.13-.39-.22-.58-.28-.2-.06-.4-.09-.61-.09.46-.08.83-.28,1.13-.58.29-.3.44-.71.44-1.23,0-.32-.05-.59-.16-.82-.11-.23-.25-.41-.41-.53-.17-.12-.39-.22-.66-.29-.27-.07-.53-.11-.78-.13-.24-.02-.54-.03-.9-.03-.1,0-.28,0-.54.01-.26,0-.44.01-.55.01-.28,0-.52,0-.72-.02l.09.18c.12.22.19.5.22.83.03.33.04,1.22.04,2.66s-.02,2.39-.05,2.74c-.03.36-.1.64-.21.85l-.09.18.83-.02c.12,0,.3,0,.56.01s.45.01.57.01c.51,0,.88-.01,1.13-.04.25-.02.48-.08.7-.17.33-.13.6-.35.83-.65.23-.3.34-.69.34-1.18,0-.33-.06-.62-.18-.86-.12-.24-.27-.43-.46-.56ZM129.61,8.85l.56-.02c.24,0,.45.01.62.04.17.03.35.08.52.16.17.08.3.21.39.39.09.18.14.41.14.69,0,.41-.1.73-.29.97-.19.24-.43.38-.72.42-.19.03-.4.05-.6.05-.26,0-.47,0-.62-.02v-2.69ZM132.02,14.12c-.04.16-.11.29-.19.39-.08.1-.16.17-.22.21-.06.05-.14.09-.23.13-.21.1-.57.16-1.07.16-.37,0-.6,0-.7-.02v-2.79l.65-.02c.59,0,1.04.1,1.36.29.32.19.47.55.47,1.09,0,.22-.02.4-.07.57Z"/>
      <path class="cls-1" d="M139.36,14.57c-.04-.29-.06-.86-.06-1.69v-1.02c0-.71.02-1.44.05-2.21l-1.38.26.09.18c.09.17.15.4.19.69.03.29.05.86.05,1.7v1.85l-.03.07s-.05.11-.11.18-.13.14-.22.2-.21.12-.38.17c-.17.05-.36.07-.57.07-.47,0-.81-.16-1.01-.48-.1-.15-.16-.37-.19-.66-.03-.29-.04-.74-.04-1.35v-.69c0-.74.01-1.47.04-2.21l-1.38.26.09.18c.09.17.15.4.19.69.03.29.05.86.05,1.7v.35c0,.62.02,1.08.06,1.38.04.29.11.55.22.77.27.51.8.77,1.58.77.96,0,1.54-.45,1.73-1.34l-.04,1.3,1.35-.26-.09-.18c-.1-.17-.16-.41-.2-.7Z"/>
      <path class="cls-1" d="M143.52,12.36l-.72-.4c-.3-.17-.52-.32-.64-.45-.13-.13-.19-.3-.19-.52,0-.5.33-.75,1-.75.32,0,.59.08.8.25.21.17.43.42.66.75l-.02-.68c0-.28,0-.48.02-.61l-.16-.08c-.1-.06-.28-.11-.53-.16-.25-.05-.51-.08-.8-.08-.59,0-1.06.13-1.4.39-.34.26-.51.65-.51,1.19,0,.23.03.43.09.61s.16.33.29.45.24.21.32.26.19.12.34.21l.93.56c.21.13.37.25.47.39.1.13.15.3.15.51,0,.59-.36.88-1.09.88-.36,0-.65-.08-.87-.24s-.44-.42-.67-.76l.02.7c0,.28,0,.48-.02.61l.17.07c.12.06.31.11.56.16.26.05.53.08.82.08.39,0,.72-.05,1-.16.28-.1.5-.24.64-.42.15-.17.25-.35.31-.54s.09-.38.09-.59c0-.38-.09-.69-.27-.94-.18-.25-.45-.48-.81-.69Z"/>
      <path class="cls-1" d="M146.78,8.83c.21,0,.38-.05.51-.16.12-.11.19-.27.19-.48,0-.2-.06-.36-.19-.46-.12-.11-.29-.16-.5-.16-.46,0-.7.22-.7.66,0,.19.06.35.19.45.12.11.29.16.5.16Z"/>
      <path class="cls-1" d="M147.33,14.68c-.03-.31-.05-.93-.05-1.88v-.33c0-1.49.03-2.43.09-2.82l-1.45.26.09.18c.1.17.16.41.2.7.04.3.06.86.06,1.69v.32c0,.99-.02,1.63-.05,1.92s-.1.54-.21.73l-.09.18.86-.02c.41,0,.69,0,.84.02l-.09-.18c-.11-.22-.18-.48-.21-.78Z"/>
      <path class="cls-1" d="M154.04,15.13c-.03-.09-.05-.32-.08-.69s-.04-.92-.04-1.64v-.27c0-.62-.02-1.09-.06-1.39s-.11-.56-.22-.77c-.29-.51-.81-.77-1.58-.77-.96,0-1.54.45-1.73,1.34l.04-1.3-1.35.26.09.18c.1.17.16.41.2.7.04.3.06.86.06,1.69v.32c0,.72-.01,1.27-.04,1.64s-.05.6-.08.69c-.03.09-.08.2-.15.33l-.09.18.86-.02c.41,0,.69,0,.84.02l-.09-.18c-.07-.13-.12-.24-.15-.33-.03-.09-.05-.32-.08-.69s-.04-.92-.04-1.64v-1.78l.03-.07s.05-.11.1-.17.13-.13.22-.2c.09-.07.22-.12.38-.17.17-.05.36-.07.57-.07.48,0,.82.16,1.01.48.1.15.16.36.19.65.03.29.04.74.04,1.35,0,.72-.01,1.27-.04,1.64s-.05.6-.08.68c-.03.09-.08.2-.15.33l-.09.18.84-.02c.41,0,.7,0,.87.02l-.09-.18c-.07-.13-.12-.24-.15-.33Z"/>
      <path class="cls-1" d="M158.07,9.61c-.74,0-1.36.26-1.85.78-.49.52-.73,1.3-.73,2.34,0,.96.23,1.7.69,2.23.46.53,1.12.79,1.96.79.69,0,1.2-.14,1.55-.42s.52-.63.52-1.05l-.05.08s-.09.11-.18.18c-.09.07-.2.14-.33.21-.13.07-.3.13-.53.18-.22.05-.47.08-.74.08-.35,0-.65-.07-.9-.2-.25-.14-.44-.32-.57-.56-.13-.24-.22-.48-.28-.74s-.08-.53-.08-.83h3.89v-.1c0-1.98-.79-2.97-2.38-2.97ZM156.57,12.17c0-.41.06-.75.15-1.03.09-.27.22-.47.38-.59.16-.12.31-.2.46-.25.15-.04.31-.07.49-.07.88,0,1.31.58,1.31,1.73l-2.78.21Z"/>
      <path class="cls-1" d="M164.13,12.36l-.72-.4c-.3-.17-.52-.32-.64-.45-.13-.13-.19-.3-.19-.52,0-.5.33-.75,1-.75.32,0,.59.08.8.25.21.17.43.42.66.75l-.02-.68c0-.28,0-.48.02-.61l-.16-.08c-.1-.06-.28-.11-.53-.16-.25-.05-.51-.08-.8-.08-.59,0-1.06.13-1.4.39-.34.26-.51.65-.51,1.19,0,.23.03.43.09.61s.16.33.29.45.24.21.32.26.2.12.34.21l.93.56c.21.13.37.25.47.39.1.13.15.3.15.51,0,.59-.36.88-1.09.88-.36,0-.65-.08-.87-.24-.22-.16-.44-.42-.67-.76l.02.7c0,.28,0,.48-.02.61l.17.07c.12.06.31.11.56.16.26.05.53.08.82.08.39,0,.72-.05,1-.16.28-.1.5-.24.64-.42.15-.17.25-.35.31-.54s.09-.38.09-.59c0-.38-.09-.69-.27-.94-.18-.25-.45-.48-.81-.69Z"/>
      <path class="cls-1" d="M169.82,13.04c-.18-.25-.45-.48-.81-.69l-.72-.4c-.3-.17-.52-.32-.64-.45-.13-.13-.19-.3-.19-.52,0-.5.33-.75,1-.75.32,0,.59.08.8.25.21.17.43.42.66.75l-.02-.68c0-.28,0-.48.02-.61l-.16-.08c-.1-.06-.28-.11-.53-.16-.25-.05-.51-.08-.8-.08-.59,0-1.06.13-1.4.39-.34.26-.51.65-.51,1.19,0,.23.03.43.09.61s.16.33.29.45.24.21.32.26.2.12.34.21l.93.56c.21.13.37.25.47.39.1.13.15.3.15.51,0,.59-.36.88-1.09.88-.36,0-.65-.08-.87-.24-.22-.16-.44-.42-.67-.76l.02.7c0,.28,0,.48-.02.61l.17.07c.12.06.31.11.56.16.26.05.53.08.82.08.39,0,.72-.05,1-.16.28-.1.5-.24.64-.42.15-.17.25-.35.31-.54s.09-.38.09-.59c0-.38-.09-.69-.27-.94Z"/>
    </g>
  </g>
</svg>